<mxfile host="app.diagrams.net" agent="Mozilla/5.0 (Macintosh; Intel Mac OS X 10_15_7) AppleWebKit/537.36 (KHTML, like Gecko) Chrome/126.0.0.0 YaBrowser/24.7.0.0 Safari/537.36" version="24.8.0">
  <diagram name="Страница — 1" id="4pxy5ucQi7FibUbZCoUs">
    <mxGraphModel dx="813" dy="369" grid="1" gridSize="10" guides="1" tooltips="1" connect="1" arrows="1" fold="1" page="1" pageScale="1" pageWidth="827" pageHeight="1169" math="0" shadow="0">
      <root>
        <mxCell id="0" />
        <mxCell id="1" parent="0" />
        <mxCell id="v7LPU3u-Gr3pAA867cZl-9" value="Заголовок" style="rounded=0;whiteSpace=wrap;html=1;" parent="1" vertex="1">
          <mxGeometry x="80" y="40" width="120" height="60" as="geometry" />
        </mxCell>
        <mxCell id="v7LPU3u-Gr3pAA867cZl-10" value="Добавление тега в уже созданную заметку" style="rounded=0;whiteSpace=wrap;html=1;" parent="1" vertex="1">
          <mxGeometry x="200" y="40" width="400" height="60" as="geometry" />
        </mxCell>
        <mxCell id="v7LPU3u-Gr3pAA867cZl-11" value="Акторы" style="rounded=0;whiteSpace=wrap;html=1;" parent="1" vertex="1">
          <mxGeometry x="80" y="100" width="120" height="60" as="geometry" />
        </mxCell>
        <mxCell id="v7LPU3u-Gr3pAA867cZl-12" value="Пользователь" style="rounded=0;whiteSpace=wrap;html=1;" parent="1" vertex="1">
          <mxGeometry x="200" y="100" width="400" height="60" as="geometry" />
        </mxCell>
        <mxCell id="v7LPU3u-Gr3pAA867cZl-13" value="Предусловие" style="rounded=0;whiteSpace=wrap;html=1;" parent="1" vertex="1">
          <mxGeometry x="80" y="160" width="120" height="60" as="geometry" />
        </mxCell>
        <mxCell id="v7LPU3u-Gr3pAA867cZl-14" value="Пользователь находится на экране конкретной заметки" style="rounded=0;whiteSpace=wrap;html=1;" parent="1" vertex="1">
          <mxGeometry x="200" y="160" width="400" height="60" as="geometry" />
        </mxCell>
        <mxCell id="v7LPU3u-Gr3pAA867cZl-15" value="Триггер" style="rounded=0;whiteSpace=wrap;html=1;" parent="1" vertex="1">
          <mxGeometry x="80" y="280" width="120" height="60" as="geometry" />
        </mxCell>
        <mxCell id="v7LPU3u-Gr3pAA867cZl-16" value="Пользователь нажимает кнопку &quot;Настройки&quot; на экране конкретной заметки (экран 1)" style="rounded=0;whiteSpace=wrap;html=1;" parent="1" vertex="1">
          <mxGeometry x="200" y="280" width="400" height="60" as="geometry" />
        </mxCell>
        <mxCell id="v7LPU3u-Gr3pAA867cZl-17" value="Основной сценарий" style="rounded=0;whiteSpace=wrap;html=1;" parent="1" vertex="1">
          <mxGeometry x="80" y="340" width="120" height="220" as="geometry" />
        </mxCell>
        <mxCell id="v7LPU3u-Gr3pAA867cZl-18" value="&lt;div style=&quot;text-align: left;&quot;&gt;&lt;blockquote style=&quot;margin: 0 0 0 40px; border: none; padding: 0px;&quot;&gt;&lt;div style=&quot;text-align: left;&quot;&gt;&lt;br&gt;&lt;/div&gt;&lt;div style=&quot;text-align: left;&quot;&gt;1. Система отображает выбранную заметку и меню ее настроек&lt;/div&gt;&lt;div style=&quot;text-align: left;&quot;&gt;2. Пользователь нажимает на меню настроек&lt;/div&gt;&lt;div style=&quot;text-align: left;&quot;&gt;3. Система отображает меню настроек этой заметки&lt;/div&gt;&lt;div style=&quot;text-align: left;&quot;&gt;4. Пользователь выбирает в меню настроек заметки &quot;добавить тег&quot;&lt;/div&gt;&lt;div style=&quot;text-align: left;&quot;&gt;5. Система отображает меню выбора тега&lt;/div&gt;&lt;div style=&quot;text-align: left;&quot;&gt;6. Пользователь выбирает тег&lt;/div&gt;&lt;div style=&quot;text-align: left;&quot;&gt;7. Система отображает выбранный тег внутри заметки&lt;/div&gt;&lt;div style=&quot;text-align: left;&quot;&gt;8. Пользователь возврашается на экран со списком созданных заметок&lt;/div&gt;&lt;div style=&quot;text-align: left;&quot;&gt;9. Система отображает присвоенный тег заметке в списке заметок&lt;/div&gt;&lt;/blockquote&gt;&lt;/div&gt;&lt;div style=&quot;text-align: left;&quot;&gt;&lt;br&gt;&lt;/div&gt;" style="rounded=0;whiteSpace=wrap;html=1;" parent="1" vertex="1">
          <mxGeometry x="200" y="340" width="400" height="220" as="geometry" />
        </mxCell>
        <mxCell id="v7LPU3u-Gr3pAA867cZl-19" value="Альтернативный сценарий" style="rounded=0;whiteSpace=wrap;html=1;" parent="1" vertex="1">
          <mxGeometry x="80" y="560" width="120" height="130" as="geometry" />
        </mxCell>
        <mxCell id="v7LPU3u-Gr3pAA867cZl-20" value="&lt;div style=&quot;&quot;&gt;&lt;span style=&quot;background-color: initial;&quot;&gt;&lt;span style=&quot;white-space: pre;&quot;&gt;&#x9;&lt;/span&gt;6а. Пользователь нажимает в меню выбора тега &quot;создать тег&quot;&lt;/span&gt;&lt;/div&gt;&lt;div style=&quot;&quot;&gt;&lt;span style=&quot;white-space: pre;&quot;&gt;&#x9;&lt;/span&gt;7а. Система отображает экран ввода данных для нового тега&lt;/div&gt;&lt;div style=&quot;&quot;&gt;&lt;span style=&quot;white-space: pre;&quot;&gt;&#x9;&lt;/span&gt;8а. Пользователь вводит данные&lt;/div&gt;&lt;div style=&quot;&quot;&gt;&lt;span style=&quot;white-space: pre;&quot;&gt;&#x9;&lt;/span&gt;9а. Система отображает новый тег в меню настроек заметки&lt;/div&gt;&lt;div style=&quot;&quot;&gt;&lt;span style=&quot;background-color: initial;&quot;&gt;&lt;span style=&quot;white-space: pre;&quot;&gt;&#x9;&lt;/span&gt;- переход&amp;nbsp;к 6 шагу основного сценария&lt;/span&gt;&lt;br&gt;&lt;/div&gt;" style="rounded=0;whiteSpace=wrap;html=1;align=left;" parent="1" vertex="1">
          <mxGeometry x="200" y="560" width="400" height="130" as="geometry" />
        </mxCell>
        <mxCell id="v7LPU3u-Gr3pAA867cZl-23" value="Результат" style="rounded=0;whiteSpace=wrap;html=1;" parent="1" vertex="1">
          <mxGeometry x="80" y="780" width="120" height="60" as="geometry" />
        </mxCell>
        <mxCell id="v7LPU3u-Gr3pAA867cZl-24" value="Заметке успешно присвоен тег, в поиске по выбранному тегу отображается добавленная заметка" style="rounded=0;whiteSpace=wrap;html=1;" parent="1" vertex="1">
          <mxGeometry x="200" y="780" width="400" height="60" as="geometry" />
        </mxCell>
        <mxCell id="iikTeho6_Lmss2w3lt2U-2" value="Ограничения" style="rounded=0;whiteSpace=wrap;html=1;" vertex="1" parent="1">
          <mxGeometry x="80" y="220" width="120" height="60" as="geometry" />
        </mxCell>
        <mxCell id="iikTeho6_Lmss2w3lt2U-3" value="1. Не больше одного тега для одной заметки&lt;div&gt;2. Название тега должно быть уникальным&lt;/div&gt;" style="rounded=0;whiteSpace=wrap;html=1;" vertex="1" parent="1">
          <mxGeometry x="200" y="220" width="400" height="60" as="geometry" />
        </mxCell>
        <mxCell id="iikTeho6_Lmss2w3lt2U-5" value="" style="endArrow=classic;html=1;rounded=0;exitX=0.025;exitY=0;exitDx=0;exitDy=0;exitPerimeter=0;" edge="1" parent="1" source="v7LPU3u-Gr3pAA867cZl-20">
          <mxGeometry width="50" height="50" relative="1" as="geometry">
            <mxPoint x="210" y="550" as="sourcePoint" />
            <mxPoint x="240" y="460" as="targetPoint" />
            <Array as="points">
              <mxPoint x="210" y="460" />
            </Array>
          </mxGeometry>
        </mxCell>
        <mxCell id="iikTeho6_Lmss2w3lt2U-7" value="Исключительный сценарий" style="rounded=0;whiteSpace=wrap;html=1;" vertex="1" parent="1">
          <mxGeometry x="80" y="690" width="120" height="90" as="geometry" />
        </mxCell>
        <mxCell id="iikTeho6_Lmss2w3lt2U-8" value="&lt;blockquote style=&quot;margin: 0 0 0 40px; border: none; padding: 0px;&quot;&gt;8б. Пользователь вводит название тега, который уже существует&lt;div&gt;9б. Система сообщает о том, что такой тег уже есть и нужно создать другой&lt;/div&gt;&lt;/blockquote&gt;" style="rounded=0;whiteSpace=wrap;html=1;align=left;" vertex="1" parent="1">
          <mxGeometry x="200" y="690" width="400" height="90" as="geometry" />
        </mxCell>
        <mxCell id="iikTeho6_Lmss2w3lt2U-10" value="" style="endArrow=classic;html=1;rounded=0;" edge="1" parent="1">
          <mxGeometry width="50" height="50" relative="1" as="geometry">
            <mxPoint x="210" y="690" as="sourcePoint" />
            <mxPoint x="230" y="630" as="targetPoint" />
            <Array as="points">
              <mxPoint x="210" y="630" />
            </Array>
          </mxGeometry>
        </mxCell>
      </root>
    </mxGraphModel>
  </diagram>
</mxfile>
